<?xml version="1.0" encoding="UTF-8" standalone="no"?>
<!DOCTYPE svg PUBLIC "-//W3C//DTD SVG 1.1//EN" "http://www.w3.org/Graphics/SVG/1.1/DTD/svg11.dtd">
<svg width="100%" height="100%" viewBox="0 0 94 66" version="1.1" xmlns="http://www.w3.org/2000/svg" xmlns:xlink="http://www.w3.org/1999/xlink" xml:space="preserve" xmlns:serif="http://www.serif.com/" style="fill-rule:evenodd;clip-rule:evenodd;stroke-linecap:round;stroke-linejoin:round;stroke-miterlimit:1.5;">
    <g transform="matrix(1,0,0,1,-5017,-1638)">
        <g id="Mesa-de-trabajo15" serif:id="Mesa de trabajo15" transform="matrix(0.285506,0,0,0.516358,3584.45,791.989)">
            <rect x="5017.57" y="1638.42" width="326.887" height="127.516" style="fill:none;"/>
            <g transform="matrix(2.27459,0,0,1.33223,-8884.13,954.904)">
                <g transform="matrix(1.06049,0,0,1.06541,-512.528,-46.5601)">
                    <ellipse cx="6315.19" cy="598.694" rx="65.158" ry="14.631" style="fill:rgb(200,77,34);"/>
                </g>
                <g transform="matrix(1.00496,0,0,2.93357,-125.244,-1123.65)">
                    <path d="M6329.92,563.424C6329.92,560.267 6223.78,560.267 6223.78,563.424L6223.78,579.703C6223.78,582.86 6231.14,585.761 6240.31,586.96C6240.31,586.96 6254.26,588.499 6279.12,588.499C6303.99,588.499 6313.4,586.96 6313.4,586.96C6322.1,585.948 6329.92,582.86 6329.92,579.703L6329.92,563.424Z" style="fill:rgb(233,187,122);"/>
                    <clipPath id="_clip1">
                        <path d="M6329.92,563.424C6329.92,560.267 6223.78,560.267 6223.78,563.424L6223.78,579.703C6223.78,582.86 6231.14,585.761 6240.31,586.96C6240.31,586.96 6254.26,588.499 6279.12,588.499C6303.99,588.499 6313.4,586.96 6313.4,586.96C6322.1,585.948 6329.92,582.86 6329.92,579.703L6329.92,563.424Z"/>
                    </clipPath>
                    <g clip-path="url(#_clip1)">
                        <g transform="matrix(1,0,0,1,11.3603,0)">
                            <path d="M6329.92,563.424C6329.92,560.267 6223.78,560.267 6223.78,563.424L6223.78,579.703C6223.78,582.86 6231.14,585.761 6240.31,586.96C6240.31,586.96 6254.26,588.499 6279.12,588.499C6303.99,588.499 6313.4,586.96 6313.4,586.96C6322.1,585.948 6329.92,582.86 6329.92,579.703L6329.92,563.424Z" style="fill:rgb(235,173,86);"/>
                        </g>
                    </g>
                </g>
                <g transform="matrix(1,0,0,1,-116.758,8.08333)">
                    <ellipse cx="6299.49" cy="521.094" rx="52.866" ry="11.832" style="fill:rgb(150,168,186);"/>
                    <clipPath id="_clip2">
                        <ellipse cx="6299.49" cy="521.094" rx="52.866" ry="11.832"/>
                    </clipPath>
                    <g clip-path="url(#_clip2)">
                        <g transform="matrix(1,0,0,1,0,7.00195)">
                            <ellipse cx="6299.49" cy="521.094" rx="52.866" ry="11.832" style="fill:rgb(114,126,137);"/>
                        </g>
                        <g transform="matrix(1,0,0,1,0,15.7949)">
                            <ellipse cx="6299.49" cy="521.094" rx="52.866" ry="11.832" style="fill:rgb(101,105,108);"/>
                        </g>
                    </g>
                    <ellipse cx="6299.49" cy="521.094" rx="52.866" ry="11.832" style="fill:none;stroke:rgb(127,140,153);stroke-width:1px;"/>
                </g>
            </g>
            <g transform="matrix(4.68248,0,0,1.93664,-18483.6,-1536.1)">
                <path d="M5029.03,1656.1C5029.03,1655.4 5028.6,1654.84 5028.08,1654.84L5025.05,1654.84C5024.53,1654.84 5024.1,1655.4 5024.1,1656.1L5024.1,1658.63C5024.1,1659.32 5024.53,1659.89 5025.05,1659.89L5028.08,1659.89C5028.6,1659.89 5029.03,1659.32 5029.03,1658.63L5029.03,1656.1Z" style="fill:rgb(101,105,108);"/>
                <clipPath id="_clip3">
                    <path d="M5029.03,1656.1C5029.03,1655.4 5028.6,1654.84 5028.08,1654.84L5025.05,1654.84C5024.53,1654.84 5024.1,1655.4 5024.1,1656.1L5024.1,1658.63C5024.1,1659.32 5024.53,1659.89 5025.05,1659.89L5028.08,1659.89C5028.6,1659.89 5029.03,1659.32 5029.03,1658.63L5029.03,1656.1Z"/>
                </clipPath>
                <g clip-path="url(#_clip3)">
                    <g transform="matrix(1.22223,0,0,1,-1117.1,-1.07625)">
                        <path d="M5029.03,1656.1C5029.03,1655.4 5028.68,1654.84 5028.25,1654.84L5024.87,1654.84C5024.45,1654.84 5024.1,1655.4 5024.1,1656.1L5024.1,1658.63C5024.1,1659.32 5024.45,1659.89 5024.87,1659.89L5028.25,1659.89C5028.68,1659.89 5029.03,1659.32 5029.03,1658.63L5029.03,1656.1Z" style="fill:rgb(150,168,186);"/>
                    </g>
                </g>
            </g>
            <g transform="matrix(4.68248,0,0,1.93664,-18232.5,-1536.1)">
                <path d="M5029.03,1656.1C5029.03,1655.4 5028.6,1654.84 5028.08,1654.84L5025.05,1654.84C5024.53,1654.84 5024.1,1655.4 5024.1,1656.1L5024.1,1658.63C5024.1,1659.32 5024.53,1659.89 5025.05,1659.89L5028.08,1659.89C5028.6,1659.89 5029.03,1659.32 5029.03,1658.63L5029.03,1656.1Z" style="fill:rgb(101,105,108);"/>
                <clipPath id="_clip4">
                    <path d="M5029.03,1656.1C5029.03,1655.4 5028.6,1654.84 5028.08,1654.84L5025.05,1654.84C5024.53,1654.84 5024.1,1655.4 5024.1,1656.1L5024.1,1658.63C5024.1,1659.32 5024.53,1659.89 5025.05,1659.89L5028.08,1659.89C5028.6,1659.89 5029.03,1659.32 5029.03,1658.63L5029.03,1656.1Z"/>
                </clipPath>
                <g clip-path="url(#_clip4)">
                    <g transform="matrix(1.22223,0,0,1,-1117.1,-1.07625)">
                        <path d="M5029.03,1656.1C5029.03,1655.4 5028.68,1654.84 5028.25,1654.84L5024.87,1654.84C5024.45,1654.84 5024.1,1655.4 5024.1,1656.1L5024.1,1658.63C5024.1,1659.32 5024.45,1659.89 5024.87,1659.89L5028.25,1659.89C5028.68,1659.89 5029.03,1659.32 5029.03,1658.63L5029.03,1656.1Z" style="fill:rgb(150,168,186);"/>
                    </g>
                </g>
            </g>
        </g>
    </g>
</svg>
