<?xml version="1.0" encoding="UTF-8" standalone="no"?>
<!DOCTYPE svg PUBLIC "-//W3C//DTD SVG 1.1//EN" "http://www.w3.org/Graphics/SVG/1.1/DTD/svg11.dtd">
<svg width="100%" height="100%" viewBox="0 0 1191 1684" version="1.1" xmlns="http://www.w3.org/2000/svg" xmlns:xlink="http://www.w3.org/1999/xlink" xml:space="preserve" xmlns:serif="http://www.serif.com/" style="fill-rule:evenodd;clip-rule:evenodd;stroke-linejoin:round;stroke-miterlimit:2;">
    <g transform="matrix(0.48,0,0,0.48,0,0)">
        <g transform="matrix(41.1842,0,0,45.0269,-661.771,-22944)">
            <g transform="matrix(0.500732,0,0,0.434779,0.876699,-446.163)">
                <path d="M94.246,2291.85C94.246,2288.63 91.761,2286.01 88.7,2286.01L77.606,2286.01C74.544,2286.01 72.059,2288.63 72.059,2291.85L72.059,2326.59C72.059,2329.81 74.544,2332.43 77.606,2332.43L88.7,2332.43C91.761,2332.43 94.246,2329.81 94.246,2326.59L94.246,2291.85Z" style="fill:rgb(232,188,159);"/>
            </g>
            <g transform="matrix(0.500732,0,0,0.413886,0.876699,-397.207)">
                <path d="M94.246,2292.15C94.246,2288.76 91.761,2286.01 88.7,2286.01L77.606,2286.01C74.544,2286.01 72.059,2288.76 72.059,2292.15L72.059,2326.29C72.059,2329.68 74.544,2332.43 77.606,2332.43L88.7,2332.43C91.761,2332.43 94.246,2329.68 94.246,2326.29L94.246,2292.15Z" style="fill:rgb(81,57,86);"/>
            </g>
            <g transform="matrix(0.730993,0,0,0.73045,-23.9031,-1135.6)">
                <path d="M102.313,2321.41L102.313,2320.91L103.887,2320.91L103.887,2321.41L104.139,2320.98L105.502,2321.76L105.251,2322.2L105.686,2321.95L106.474,2323.31L106.038,2323.56L106.541,2323.56L106.541,2325.14L106.038,2325.14L106.474,2325.39L105.686,2326.75L105.251,2326.5L105.502,2326.94L104.139,2327.72L103.887,2327.29L103.887,2327.79L102.313,2327.79L102.313,2327.29L102.062,2327.72L100.698,2326.94L100.949,2326.5L100.514,2326.75L99.727,2325.39L100.162,2325.14L99.659,2325.14L99.659,2323.56L100.162,2323.56L99.727,2323.31L100.514,2321.95L100.949,2322.2L100.698,2321.76L102.062,2320.98L102.313,2321.41Z" style="fill:rgb(192,79,138);"/>
            </g>
            <g transform="matrix(0.500732,0,0,0.351219,-1.62647,-256.327)">
                <rect x="108.859" y="2320.94" width="28.004" height="3.684" style="fill:rgb(81,57,86);"/>
            </g>
            <g transform="matrix(0.500732,0,0,0.111721,-2.10096,299.568)">
                <rect x="108.859" y="2320.94" width="28.004" height="3.684" style="fill:rgb(232,188,159);"/>
            </g>
            <g transform="matrix(0.500732,0,0,0.351219,-1.62647,-254.23)">
                <rect x="108.859" y="2320.94" width="28.004" height="3.684" style="fill:rgb(81,57,86);"/>
            </g>
            <g transform="matrix(0.500732,0,0,0.0896986,-2.10096,352.749)">
                <rect x="108.859" y="2320.94" width="28.004" height="3.684" style="fill:rgb(232,188,159);"/>
            </g>
            <g transform="matrix(0.500732,0,0,0.400129,-2.1303,-369.364)">
                <path d="M138.299,2320.16C138.299,2319.53 137.845,2319.01 137.286,2319.01L131.255,2319.01C130.696,2319.01 130.242,2319.53 130.242,2320.16L130.242,2322.48C130.242,2323.12 130.696,2323.64 131.255,2323.64L137.286,2323.64C137.845,2323.64 138.299,2323.12 138.299,2322.48L138.299,2320.16Z" style="fill:rgb(232,188,159);"/>
                <clipPath id="_clip1">
                    <path d="M138.299,2320.16C138.299,2319.53 137.845,2319.01 137.286,2319.01L131.255,2319.01C130.696,2319.01 130.242,2319.53 130.242,2320.16L130.242,2322.48C130.242,2323.12 130.696,2323.64 131.255,2323.64L137.286,2323.64C137.845,2323.64 138.299,2323.12 138.299,2322.48L138.299,2320.16Z"/>
                </clipPath>
                <g clip-path="url(#_clip1)">
                    <g transform="matrix(1,0,0,1,-1.77636e-15,0.833024)">
                        <path d="M138.299,2320.16C138.299,2319.53 137.845,2319.01 137.286,2319.01L131.255,2319.01C130.696,2319.01 130.242,2319.53 130.242,2320.16L130.242,2322.48C130.242,2323.12 130.696,2323.64 131.255,2323.64L137.286,2323.64C137.845,2323.64 138.299,2323.12 138.299,2322.48L138.299,2320.16Z" style="fill:rgb(81,57,86);"/>
                    </g>
                </g>
            </g>
            <g transform="matrix(0.500732,0,0,0.400129,-2.1303,-367.333)">
                <path d="M138.299,2320.16C138.299,2319.53 137.845,2319.01 137.286,2319.01L131.255,2319.01C130.696,2319.01 130.242,2319.53 130.242,2320.16L130.242,2322.48C130.242,2323.12 130.696,2323.64 131.255,2323.64L137.286,2323.64C137.845,2323.64 138.299,2323.12 138.299,2322.48L138.299,2320.16Z" style="fill:rgb(232,188,159);"/>
                <clipPath id="_clip2">
                    <path d="M138.299,2320.16C138.299,2319.53 137.845,2319.01 137.286,2319.01L131.255,2319.01C130.696,2319.01 130.242,2319.53 130.242,2320.16L130.242,2322.48C130.242,2323.12 130.696,2323.64 131.255,2323.64L137.286,2323.64C137.845,2323.64 138.299,2323.12 138.299,2322.48L138.299,2320.16Z"/>
                </clipPath>
                <g clip-path="url(#_clip2)">
                    <g transform="matrix(1,0,0,1,-1.77636e-15,0.766102)">
                        <path d="M138.299,2320.16C138.299,2319.53 137.845,2319.01 137.286,2319.01L131.255,2319.01C130.696,2319.01 130.242,2319.53 130.242,2320.16L130.242,2322.48C130.242,2323.12 130.696,2323.64 131.255,2323.64L137.286,2323.64C137.845,2323.64 138.299,2323.12 138.299,2322.48L138.299,2320.16Z" style="fill:rgb(81,57,86);"/>
                    </g>
                </g>
            </g>
            <g transform="matrix(0.227544,0,0,1.02727,27.3057,-1824.03)">
                <path d="M138.299,2319.41C138.299,2319.19 137.396,2319.01 136.285,2319.01L132.256,2319.01C131.145,2319.01 130.242,2319.19 130.242,2319.41L130.242,2323.23C130.242,2323.46 131.145,2323.64 132.256,2323.64L136.285,2323.64C137.396,2323.64 138.299,2323.46 138.299,2323.23L138.299,2319.41Z" style="fill:rgb(232,188,159);"/>
                <clipPath id="_clip3">
                    <path d="M138.299,2319.41C138.299,2319.19 137.396,2319.01 136.285,2319.01L132.256,2319.01C131.145,2319.01 130.242,2319.19 130.242,2319.41L130.242,2323.23C130.242,2323.46 131.145,2323.64 132.256,2323.64L136.285,2323.64C137.396,2323.64 138.299,2323.46 138.299,2323.23L138.299,2319.41Z"/>
                </clipPath>
                <g clip-path="url(#_clip3)">
                    <g transform="matrix(1,0,0,1,5.68434e-14,0.371934)">
                        <path d="M138.299,2319.41C138.299,2319.19 137.396,2319.01 136.285,2319.01L132.256,2319.01C131.145,2319.01 130.242,2319.19 130.242,2319.41L130.242,2323.23C130.242,2323.46 131.145,2323.64 132.256,2323.64L136.285,2323.64C137.396,2323.64 138.299,2323.46 138.299,2323.23L138.299,2319.41Z" style="fill:rgb(81,57,86);"/>
                    </g>
                </g>
            </g>
            <g transform="matrix(0.631449,0,0,0.63098,-14.9968,-899.839)">
                <path d="M102.313,2321.41L102.313,2320.91L103.887,2320.91L103.887,2321.41L104.139,2320.98L105.502,2321.76L105.251,2322.2L105.686,2321.95L106.474,2323.31L106.038,2323.56L106.541,2323.56L106.541,2325.14L106.038,2325.14L106.474,2325.39L105.686,2326.75L105.251,2326.5L105.502,2326.94L104.139,2327.72L103.887,2327.29L103.887,2327.79L102.313,2327.79L102.313,2327.29L102.062,2327.72L100.698,2326.94L100.949,2326.5L100.514,2326.75L99.727,2325.39L100.162,2325.14L99.659,2325.14L99.659,2323.56L100.162,2323.56L99.727,2323.31L100.514,2321.95L100.949,2322.2L100.698,2321.76L102.062,2320.98L102.313,2321.41Z" style="fill:rgb(192,79,138);"/>
            </g>
            <g transform="matrix(0.500732,0,0,0.373887,0.876699,-305.767)">
                <path d="M94.246,2292.8C94.246,2289.05 91.761,2286.01 88.7,2286.01L77.606,2286.01C74.544,2286.01 72.059,2289.05 72.059,2292.8L72.059,2325.64C72.059,2329.39 74.544,2332.43 77.606,2332.43L88.7,2332.43C91.761,2332.43 94.246,2329.39 94.246,2325.64L94.246,2292.8Z" style="fill:rgb(192,79,138);"/>
            </g>
            <g transform="matrix(0.500732,0,0,0.500361,1.47882,-599.39)">
                <path d="M97.982,2303.79C97.982,2302.92 97.207,2302.21 96.251,2302.21L68.554,2302.21C67.599,2302.21 66.823,2302.92 66.823,2303.79L66.823,2306.96C66.823,2307.84 67.599,2308.55 68.554,2308.55L96.251,2308.55C97.207,2308.55 97.982,2307.84 97.982,2306.96L97.982,2303.79Z" style="fill:rgb(81,57,86);"/>
                <clipPath id="_clip4">
                    <path d="M97.982,2303.79C97.982,2302.92 97.207,2302.21 96.251,2302.21L68.554,2302.21C67.599,2302.21 66.823,2302.92 66.823,2303.79L66.823,2306.96C66.823,2307.84 67.599,2308.55 68.554,2308.55L96.251,2308.55C97.207,2308.55 97.982,2307.84 97.982,2306.96L97.982,2303.79Z"/>
                </clipPath>
                <g clip-path="url(#_clip4)">
                    <g transform="matrix(1,0,0,0.364598,-4.44089e-15,1462.79)">
                        <path d="M97.982,2303.79C97.982,2302.92 97.699,2302.21 97.351,2302.21L67.454,2302.21C67.106,2302.21 66.823,2302.92 66.823,2303.79L66.823,2306.96C66.823,2307.84 67.106,2308.55 67.454,2308.55L97.351,2308.55C97.699,2308.55 97.982,2307.84 97.982,2306.96L97.982,2303.79Z" style="fill:rgb(232,188,159);"/>
                    </g>
                </g>
            </g>
            <g transform="matrix(0.14268,0,0,0.142574,30.6285,228.136)">
                <path d="M97.982,2303.79C97.982,2302.92 97.207,2302.21 96.251,2302.21L68.554,2302.21C67.599,2302.21 66.823,2302.92 66.823,2303.79L66.823,2306.96C66.823,2307.84 67.599,2308.55 68.554,2308.55L96.251,2308.55C97.207,2308.55 97.982,2307.84 97.982,2306.96L97.982,2303.79Z" style="fill:rgb(81,57,86);"/>
                <clipPath id="_clip5">
                    <path d="M97.982,2303.79C97.982,2302.92 97.207,2302.21 96.251,2302.21L68.554,2302.21C67.599,2302.21 66.823,2302.92 66.823,2303.79L66.823,2306.96C66.823,2307.84 67.599,2308.55 68.554,2308.55L96.251,2308.55C97.207,2308.55 97.982,2307.84 97.982,2306.96L97.982,2303.79Z"/>
                </clipPath>
                <g clip-path="url(#_clip5)">
                    <g transform="matrix(1,0,0,0.364598,-4.44089e-15,1462.79)">
                        <path d="M97.982,2303.79C97.982,2302.92 97.699,2302.21 97.351,2302.21L67.454,2302.21C67.106,2302.21 66.823,2302.92 66.823,2303.79L66.823,2306.96C66.823,2307.84 67.106,2308.55 67.454,2308.55L97.351,2308.55C97.699,2308.55 97.982,2307.84 97.982,2306.96L97.982,2303.79Z" style="fill:rgb(232,188,159);"/>
                    </g>
                </g>
            </g>
            <g transform="matrix(0.14268,0,0,0.142574,30.6285,229.804)">
                <path d="M97.982,2303.79C97.982,2302.92 97.207,2302.21 96.251,2302.21L68.554,2302.21C67.599,2302.21 66.823,2302.92 66.823,2303.79L66.823,2306.96C66.823,2307.84 67.599,2308.55 68.554,2308.55L96.251,2308.55C97.207,2308.55 97.982,2307.84 97.982,2306.96L97.982,2303.79Z" style="fill:rgb(81,57,86);"/>
                <clipPath id="_clip6">
                    <path d="M97.982,2303.79C97.982,2302.92 97.207,2302.21 96.251,2302.21L68.554,2302.21C67.599,2302.21 66.823,2302.92 66.823,2303.79L66.823,2306.96C66.823,2307.84 67.599,2308.55 68.554,2308.55L96.251,2308.55C97.207,2308.55 97.982,2307.84 97.982,2306.96L97.982,2303.79Z"/>
                </clipPath>
                <g clip-path="url(#_clip6)">
                    <g transform="matrix(1,0,0,0.364598,-4.44089e-15,1462.79)">
                        <path d="M97.982,2303.79C97.982,2302.92 97.699,2302.21 97.351,2302.21L67.454,2302.21C67.106,2302.21 66.823,2302.92 66.823,2303.79L66.823,2306.96C66.823,2307.84 67.106,2308.55 67.454,2308.55L97.351,2308.55C97.699,2308.55 97.982,2307.84 97.982,2306.96L97.982,2303.79Z" style="fill:rgb(232,188,159);"/>
                    </g>
                </g>
            </g>
            <g transform="matrix(0.14268,0,0,0.142574,30.6285,231.473)">
                <path d="M97.982,2303.79C97.982,2302.92 97.207,2302.21 96.251,2302.21L68.554,2302.21C67.599,2302.21 66.823,2302.92 66.823,2303.79L66.823,2306.96C66.823,2307.84 67.599,2308.55 68.554,2308.55L96.251,2308.55C97.207,2308.55 97.982,2307.84 97.982,2306.96L97.982,2303.79Z" style="fill:rgb(81,57,86);"/>
                <clipPath id="_clip7">
                    <path d="M97.982,2303.79C97.982,2302.92 97.207,2302.21 96.251,2302.21L68.554,2302.21C67.599,2302.21 66.823,2302.92 66.823,2303.79L66.823,2306.96C66.823,2307.84 67.599,2308.55 68.554,2308.55L96.251,2308.55C97.207,2308.55 97.982,2307.84 97.982,2306.96L97.982,2303.79Z"/>
                </clipPath>
                <g clip-path="url(#_clip7)">
                    <g transform="matrix(1,0,0,0.364598,-4.44089e-15,1462.79)">
                        <path d="M97.982,2303.79C97.982,2302.92 97.699,2302.21 97.351,2302.21L67.454,2302.21C67.106,2302.21 66.823,2302.92 66.823,2303.79L66.823,2306.96C66.823,2307.84 67.106,2308.55 67.454,2308.55L97.351,2308.55C97.699,2308.55 97.982,2307.84 97.982,2306.96L97.982,2303.79Z" style="fill:rgb(232,188,159);"/>
                    </g>
                </g>
            </g>
            <g transform="matrix(0.14268,0,0,0.142574,30.6285,233.141)">
                <path d="M97.982,2303.79C97.982,2302.92 97.207,2302.21 96.251,2302.21L68.554,2302.21C67.599,2302.21 66.823,2302.92 66.823,2303.79L66.823,2306.96C66.823,2307.84 67.599,2308.55 68.554,2308.55L96.251,2308.55C97.207,2308.55 97.982,2307.84 97.982,2306.96L97.982,2303.79Z" style="fill:rgb(81,57,86);"/>
                <clipPath id="_clip8">
                    <path d="M97.982,2303.79C97.982,2302.92 97.207,2302.21 96.251,2302.21L68.554,2302.21C67.599,2302.21 66.823,2302.92 66.823,2303.79L66.823,2306.96C66.823,2307.84 67.599,2308.55 68.554,2308.55L96.251,2308.55C97.207,2308.55 97.982,2307.84 97.982,2306.96L97.982,2303.79Z"/>
                </clipPath>
                <g clip-path="url(#_clip8)">
                    <g transform="matrix(1,0,0,0.364598,-4.44089e-15,1462.79)">
                        <path d="M97.982,2303.79C97.982,2302.92 97.699,2302.21 97.351,2302.21L67.454,2302.21C67.106,2302.21 66.823,2302.92 66.823,2303.79L66.823,2306.96C66.823,2307.84 67.106,2308.55 67.454,2308.55L97.351,2308.55C97.699,2308.55 97.982,2307.84 97.982,2306.96L97.982,2303.79Z" style="fill:rgb(232,188,159);"/>
                    </g>
                </g>
            </g>
            <g transform="matrix(0.14268,0,0,0.142574,30.6285,234.81)">
                <path d="M97.982,2303.79C97.982,2302.92 97.207,2302.21 96.251,2302.21L68.554,2302.21C67.599,2302.21 66.823,2302.92 66.823,2303.79L66.823,2306.96C66.823,2307.84 67.599,2308.55 68.554,2308.55L96.251,2308.55C97.207,2308.55 97.982,2307.84 97.982,2306.96L97.982,2303.79Z" style="fill:rgb(81,57,86);"/>
                <clipPath id="_clip9">
                    <path d="M97.982,2303.79C97.982,2302.92 97.207,2302.21 96.251,2302.21L68.554,2302.21C67.599,2302.21 66.823,2302.92 66.823,2303.79L66.823,2306.96C66.823,2307.84 67.599,2308.55 68.554,2308.55L96.251,2308.55C97.207,2308.55 97.982,2307.84 97.982,2306.96L97.982,2303.79Z"/>
                </clipPath>
                <g clip-path="url(#_clip9)">
                    <g transform="matrix(1,0,0,0.364598,-4.44089e-15,1462.79)">
                        <path d="M97.982,2303.79C97.982,2302.92 97.699,2302.21 97.351,2302.21L67.454,2302.21C67.106,2302.21 66.823,2302.92 66.823,2303.79L66.823,2306.96C66.823,2307.84 67.106,2308.55 67.454,2308.55L97.351,2308.55C97.699,2308.55 97.982,2307.84 97.982,2306.96L97.982,2303.79Z" style="fill:rgb(232,188,159);"/>
                    </g>
                </g>
            </g>
            <g transform="matrix(0.500732,0,0,0.500361,-1.5706,-602.614)">
                <path d="M104.495,2315.99L109.105,2331.13L104.085,2339.8L111.974,2340.08L116.036,2329.71L109.984,2314.36L104.495,2315.99Z" style="fill:rgb(81,57,86);"/>
                <clipPath id="_clip10">
                    <path d="M104.495,2315.99L109.105,2331.13L104.085,2339.8L111.974,2340.08L116.036,2329.71L109.984,2314.36L104.495,2315.99Z"/>
                </clipPath>
                <g clip-path="url(#_clip10)">
                    <g transform="matrix(1,0,0,1,-1.86372,0.172719)">
                        <path d="M104.495,2315.99L109.105,2331.13L104.085,2339.8L111.974,2340.08L116.036,2329.71L109.984,2314.36L104.495,2315.99Z" style="fill:rgb(192,79,138);"/>
                    </g>
                </g>
            </g>
            <g transform="matrix(0.917634,0.529403,-0.250366,0.433325,571.114,-460.918)">
                <path d="M55.239,2306.37L52.208,2310.44L52.051,2348.97L55.517,2344.91L55.239,2306.37Z" style="fill:rgb(192,79,138);"/>
            </g>
            <g transform="matrix(0.500732,0,0,0.500361,-2.10096,-602.476)">
                <rect x="62.088" y="2369.47" width="14.198" height="2.824" style="fill:rgb(192,79,138);"/>
            </g>
            <g transform="matrix(0.500732,0,0,0.500361,21.2,-602.476)">
                <rect x="62.088" y="2369.47" width="14.198" height="2.824" style="fill:rgb(192,79,138);"/>
            </g>
            <g transform="matrix(0.500732,0,0,0.500361,9.7409,-602.476)">
                <rect x="62.088" y="2369.47" width="14.198" height="2.824" style="fill:rgb(192,79,138);"/>
            </g>
            <g transform="matrix(0.439565,0.239646,-0.239824,0.439239,578.943,-479.907)">
                <rect x="62.088" y="2369.47" width="14.198" height="2.824" style="fill:rgb(192,79,138);"/>
            </g>
            <g transform="matrix(-0.439565,0.239646,0.239824,0.439239,-490.533,-479.907)">
                <rect x="62.088" y="2369.47" width="14.198" height="2.824" style="fill:rgb(192,79,138);"/>
            </g>
            <g transform="matrix(-0.917634,0.529403,0.250366,0.433325,-482.113,-460.918)">
                <path d="M55.239,2306.37L52.208,2310.44L52.051,2348.97L55.517,2344.91L55.239,2306.37Z" style="fill:rgb(192,79,138);"/>
            </g>
            <g transform="matrix(0.500732,0,0,0.500361,-2.45565,-602.476)">
                <rect x="90.944" y="2340.5" width="4.87" height="32.164" style="fill:rgb(192,79,138);"/>
            </g>
            <g transform="matrix(0.650883,-0.00149778,0,0.336464,-8.55473,-207.45)">
                <path d="M97.982,2303.79C97.982,2302.92 97.581,2302.21 97.087,2302.21L67.719,2302.21C67.224,2302.21 66.823,2302.92 66.823,2303.79L66.823,2306.96C66.823,2307.84 67.224,2308.55 67.719,2308.55L97.087,2308.55C97.581,2308.55 97.982,2307.84 97.982,2306.96L97.982,2303.79Z" style="fill:rgb(81,57,86);"/>
                <clipPath id="_clip11">
                    <path d="M97.982,2303.79C97.982,2302.92 97.581,2302.21 97.087,2302.21L67.719,2302.21C67.224,2302.21 66.823,2302.92 66.823,2303.79L66.823,2306.96C66.823,2307.84 67.224,2308.55 67.719,2308.55L97.087,2308.55C97.581,2308.55 97.982,2307.84 97.982,2306.96L97.982,2303.79Z"/>
                </clipPath>
                <g clip-path="url(#_clip11)">
                    <g transform="matrix(1,0,0,0.364598,-4.44089e-15,1462.79)">
                        <path d="M97.982,2303.79C97.982,2302.92 97.836,2302.21 97.656,2302.21L67.15,2302.21C66.97,2302.21 66.823,2302.92 66.823,2303.79L66.823,2306.96C66.823,2307.84 66.97,2308.55 67.15,2308.55L97.656,2308.55C97.836,2308.55 97.982,2307.84 97.982,2306.96L97.982,2303.79Z" style="fill:rgb(232,188,159);"/>
                    </g>
                </g>
            </g>
        </g>
    </g>
</svg>
