<?xml version="1.0" encoding="UTF-8" standalone="no"?>
<!DOCTYPE svg PUBLIC "-//W3C//DTD SVG 1.1//EN" "http://www.w3.org/Graphics/SVG/1.1/DTD/svg11.dtd">
<svg width="100%" height="100%" viewBox="0 0 1191 1684" version="1.1" xmlns="http://www.w3.org/2000/svg" xmlns:xlink="http://www.w3.org/1999/xlink" xml:space="preserve" xmlns:serif="http://www.serif.com/" style="fill-rule:evenodd;clip-rule:evenodd;stroke-linejoin:round;stroke-miterlimit:2;">
    <g transform="matrix(0.48,0,0,0.48,0,0)">
        <g transform="matrix(5.2798,0,0,5.2798,4264.07,-10335.2)">
            <circle cx="-580.146" cy="2501.23" r="100.287" style="fill:rgb(116,56,0);"/>
        </g>
        <g transform="matrix(5.0595,0,0,5.0595,4136.27,-9784.19)">
            <circle cx="-580.146" cy="2501.23" r="100.287" style="fill:rgb(81,39,0);"/>
        </g>
        <g transform="matrix(4.3766,0,0,4.3766,3740.09,-8076.1)">
            <circle cx="-580.146" cy="2501.23" r="100.287" style="fill:rgb(226,170,119);"/>
            <clipPath id="_clip1">
                <circle cx="-580.146" cy="2501.23" r="100.287"/>
            </clipPath>
            <g clip-path="url(#_clip1)">
                <g transform="matrix(0.582028,0.336034,-0.578017,1.00116,1277.34,291.157)">
                    <rect x="-840.464" y="2355.07" width="70.651" height="221.151" style="fill:rgb(255,215,179);"/>
                </g>
                <g transform="matrix(0.43278,0.249865,-0.578017,1.00116,1238.68,257.083)">
                    <rect x="-840.464" y="2355.07" width="70.651" height="221.151" style="fill:rgb(255,233,212);"/>
                </g>
            </g>
        </g>
        <g transform="matrix(5.0595,0,0,5.0595,5036.47,-8842.55)">
            <path d="M-758.07,2248.41L-735.307,2284.7L-693.758,2295.14L-721.239,2328L-718.323,2370.74L-758.07,2354.76L-797.816,2370.74L-794.901,2328L-822.381,2295.14L-780.832,2284.7L-758.07,2248.41Z" style="fill:rgb(116,56,0);"/>
        </g>
        <g transform="matrix(4.20028,0,0,4.20028,4385.12,-6858.1)">
            <path d="M-758.07,2248.41L-735.307,2284.7L-693.758,2295.14L-721.239,2328L-718.323,2370.74L-758.07,2354.76L-797.816,2370.74L-794.901,2328L-822.381,2295.14L-780.832,2284.7L-758.07,2248.41Z" style="fill:rgb(81,39,0);"/>
        </g>
    </g>
</svg>
