<?xml version="1.0" encoding="UTF-8" standalone="no"?>
<!DOCTYPE svg PUBLIC "-//W3C//DTD SVG 1.1//EN" "http://www.w3.org/Graphics/SVG/1.1/DTD/svg11.dtd">
<svg width="100%" height="100%" viewBox="0 0 800 600" version="1.1" xmlns="http://www.w3.org/2000/svg" xmlns:xlink="http://www.w3.org/1999/xlink" xml:space="preserve" xmlns:serif="http://www.serif.com/" style="fill-rule:evenodd;clip-rule:evenodd;stroke-linecap:round;stroke-linejoin:round;stroke-miterlimit:1.5;">
    <g transform="matrix(3.34234,0,0,3.71225,1590.71,-1733.87)">
        <path d="M-294.384,507.756C-294.384,506.43 -295.58,505.353 -297.052,505.353L-418.697,505.353C-420.17,505.353 -421.365,506.43 -421.365,507.756L-421.365,521.312C-421.365,522.638 -420.17,523.715 -418.697,523.715L-297.052,523.715C-295.58,523.715 -294.384,522.638 -294.384,521.312L-294.384,507.756Z" style="fill:rgb(48,48,48);"/>
    </g>
    <g transform="matrix(3.23081,0,0,3.1886,1550.79,-1464.81)">
        <path d="M-294.384,507.756C-294.384,506.43 -295.446,505.353 -296.755,505.353L-418.994,505.353C-420.303,505.353 -421.365,506.43 -421.365,507.756L-421.365,521.312C-421.365,522.638 -420.303,523.715 -418.994,523.715L-296.755,523.715C-295.446,523.715 -294.384,522.638 -294.384,521.312L-294.384,507.756Z" style="fill:rgb(192,79,138);"/>
        <clipPath id="_clip1">
            <path d="M-294.384,507.756C-294.384,506.43 -295.446,505.353 -296.755,505.353L-418.994,505.353C-420.303,505.353 -421.365,506.43 -421.365,507.756L-421.365,521.312C-421.365,522.638 -420.303,523.715 -418.994,523.715L-296.755,523.715C-295.446,523.715 -294.384,522.638 -294.384,521.312L-294.384,507.756Z"/>
        </clipPath>
        <g clip-path="url(#_clip1)">
            <g transform="matrix(1.0745,0,0,1.04109,27.5883,-15.6089)">
                <path d="M-296.787,499.946C-295.933,499.946 -295.183,500.392 -294.756,501.063C-295.183,501.735 -295.933,502.181 -296.787,502.181L-418.963,502.181C-419.816,502.181 -420.567,501.735 -420.993,501.063C-420.567,500.392 -419.816,499.946 -418.963,499.946L-296.787,499.946Z" style="fill:rgb(232,188,159);"/>
            </g>
        </g>
    </g>
    <g transform="matrix(3.23081,0,0,3.1886,1550.3,-1464.61)">
        <path d="M-296.787,523.715L-418.963,523.715C-420.289,523.715 -421.365,522.638 -421.365,521.312L-421.365,507.756C-421.365,506.967 -420.984,506.266 -420.371,505.862L-420.371,518.13C-420.371,519.436 -419.311,520.496 -418.006,520.496L-297.743,520.496C-296.438,520.496 -295.378,519.436 -295.378,518.13L-295.378,505.862C-294.765,506.266 -294.384,506.967 -294.384,507.756L-294.384,521.312C-294.384,522.638 -295.46,523.715 -296.787,523.715Z" style="fill:rgb(81,57,86);"/>
    </g>
    <g transform="matrix(3.23081,0,0,3.1886,1550.79,-1809.39)">
        <path d="M-411.67,622.98C-411.67,622.451 -412.094,622.021 -412.616,622.021L-414.56,622.021C-415.082,622.021 -415.507,622.451 -415.507,622.98L-415.507,624.899C-415.507,625.428 -415.082,625.858 -414.56,625.858L-412.616,625.858C-412.094,625.858 -411.67,625.428 -411.67,624.899L-411.67,622.98Z" style="fill:rgb(232,188,159);"/>
    </g>
    <g transform="matrix(3.23081,0,0,3.1886,1912.56,-1809.39)">
        <path d="M-411.67,622.98C-411.67,622.451 -412.094,622.021 -412.616,622.021L-414.56,622.021C-415.082,622.021 -415.507,622.451 -415.507,622.98L-415.507,624.899C-415.507,625.428 -415.082,625.858 -414.56,625.858L-412.616,625.858C-412.094,625.858 -411.67,625.428 -411.67,624.899L-411.67,622.98Z" style="fill:rgb(232,188,159);"/>
    </g>
    <g transform="matrix(3.23081,0,0,3.1886,1550.79,-1812.75)">
        <path d="M-411.67,622.98C-411.67,622.451 -412.094,622.021 -412.616,622.021L-414.56,622.021C-415.082,622.021 -415.507,622.451 -415.507,622.98L-415.507,624.899C-415.507,625.428 -415.082,625.858 -414.56,625.858L-412.616,625.858C-412.094,625.858 -411.67,625.428 -411.67,624.899L-411.67,622.98Z" style="fill:rgb(81,57,86);"/>
    </g>
    <g transform="matrix(3.23081,0,0,3.1886,1912.56,-1812.75)">
        <path d="M-411.67,622.98C-411.67,622.451 -412.094,622.021 -412.616,622.021L-414.56,622.021C-415.082,622.021 -415.507,622.451 -415.507,622.98L-415.507,624.899C-415.507,625.428 -415.082,625.858 -414.56,625.858L-412.616,625.858C-412.094,625.858 -411.67,625.428 -411.67,624.899L-411.67,622.98Z" style="fill:rgb(81,57,86);"/>
    </g>
    <g transform="matrix(2.57063,0,0,2.57063,-685.055,-5950.94)">
        <path d="M456.147,2398.3C456.147,2396.42 454.62,2394.9 452.74,2394.9L384.949,2394.9C383.069,2394.9 381.542,2396.42 381.542,2398.3L381.542,2405.12C381.542,2407 383.069,2408.53 384.949,2408.53L452.74,2408.53C454.62,2408.53 456.147,2407 456.147,2405.12L456.147,2398.3Z" style="fill:rgb(114,165,184);"/>
        <clipPath id="_clip2">
            <path d="M456.147,2398.3C456.147,2396.42 454.62,2394.9 452.74,2394.9L384.949,2394.9C383.069,2394.9 381.542,2396.42 381.542,2398.3L381.542,2405.12C381.542,2407 383.069,2408.53 384.949,2408.53L452.74,2408.53C454.62,2408.53 456.147,2407 456.147,2405.12L456.147,2398.3Z"/>
        </clipPath>
        <g clip-path="url(#_clip2)">
            <g transform="matrix(1.09159,0,0,1,-38.5963,4.2207)">
                <path d="M456.147,2398.3C456.147,2396.42 454.748,2394.9 453.025,2394.9L384.664,2394.9C382.941,2394.9 381.542,2396.42 381.542,2398.3L381.542,2405.12C381.542,2407 382.941,2408.53 384.664,2408.53L453.025,2408.53C454.748,2408.53 456.147,2407 456.147,2405.12L456.147,2398.3Z" style="fill:rgb(81,109,157);"/>
            </g>
        </g>
    </g>
    <g transform="matrix(2.57063,0,0,2.57063,-689.476,-5954.64)">
        <rect x="386.245" y="2402.76" width="3.13" height="3.13" style="fill:rgb(114,165,184);"/>
    </g>
    <g transform="matrix(2.57063,0,0,2.57063,-602.834,-5954.64)">
        <rect x="386.245" y="2402.76" width="3.13" height="3.13" style="fill:rgb(114,165,184);"/>
    </g>
    <g transform="matrix(2.57063,0,0,2.57063,-518.979,-5954.64)">
        <rect x="386.245" y="2402.76" width="3.13" height="3.13" style="fill:rgb(114,165,184);"/>
    </g>
    <g transform="matrix(2.57063,0,0,2.57063,-689.476,-5949.93)">
        <rect x="386.245" y="2402.76" width="3.13" height="3.13" style="fill:rgb(75,86,144);"/>
    </g>
    <g transform="matrix(2.57063,0,0,2.57063,-602.834,-5949.93)">
        <rect x="386.245" y="2402.76" width="3.13" height="3.13" style="fill:rgb(75,86,144);"/>
    </g>
    <g transform="matrix(2.57063,0,0,2.57063,-518.979,-5949.93)">
        <rect x="386.245" y="2402.76" width="3.13" height="3.13" style="fill:rgb(75,86,144);"/>
    </g>
    <g transform="matrix(2.57063,0,0,1.61668,-698.976,-3652.62)">
        <ellipse cx="424.761" cy="2415.87" rx="33.633" ry="3.462" style="fill:none;stroke:rgb(232,188,159);stroke-width:2px;"/>
    </g>
</svg>
