<?xml version="1.0" encoding="UTF-8" standalone="no"?>
<!DOCTYPE svg PUBLIC "-//W3C//DTD SVG 1.1//EN" "http://www.w3.org/Graphics/SVG/1.1/DTD/svg11.dtd">
<svg width="100%" height="100%" viewBox="0 0 2481 3508" version="1.1" xmlns="http://www.w3.org/2000/svg" xmlns:xlink="http://www.w3.org/1999/xlink" xml:space="preserve" xmlns:serif="http://www.serif.com/" style="fill-rule:evenodd;clip-rule:evenodd;stroke-linejoin:round;stroke-miterlimit:2;">
    <g transform="matrix(8.63876,0,0,8.63876,6193.62,-115.744)">
        <circle cx="-492.121" cy="124.531" r="29.818" style="fill:rgb(226,170,119);"/>
    </g>
    <g transform="matrix(8.63876,0,0,8.63876,4824.2,-79.904)">
        <circle cx="-492.121" cy="124.531" r="29.818" style="fill:rgb(226,170,119);"/>
    </g>
    <g transform="matrix(0.387267,-5.14473,-5.14473,-0.387267,4130.69,3882.65)">
        <path d="M385.62,424.096L390.92,427.305L394.67,432.423L395.998,438.394C395.643,440.409 395.648,442.521 394.935,444.438C392.912,449.881 391.031,450.41 386.686,453.894C386.686,453.894 379.861,459.202 375.49,463.644C355.052,484.407 340.462,509.472 329.111,535.816C328.799,536.477 328.49,537.139 328.182,537.801C323.204,548.544 318.527,559.405 314.282,570.435L314.278,570.445C311.343,575.181 311.047,577.12 305.872,579.77C304.048,580.705 301.945,580.944 299.981,581.531C299.981,581.531 293.849,580.893 293.849,580.893L288.518,577.82C285.256,573.568 283.57,572.567 282.967,566.927C282.404,561.658 284.435,556.669 285.902,551.571C287.623,545.588 289.498,539.645 291.518,533.73C292.903,529.673 294.432,525.691 295.993,521.714L296.044,521.584C306.946,496.281 320.328,471.896 338.493,451.115C348.095,440.131 359.723,430.303 373.181,424.426C373.181,424.426 379.472,423.049 379.472,423.049C381.522,423.398 383.571,423.747 385.62,424.096Z" style="fill:rgb(226,170,119);"/>
    </g>
    <g transform="matrix(-0.387267,-5.14473,5.14473,-0.387267,-1607.77,3882.65)">
        <path d="M385.62,424.096L390.92,427.305L394.67,432.423L395.998,438.394C395.643,440.409 395.648,442.521 394.935,444.438C392.912,449.881 391.031,450.41 386.686,453.894C386.686,453.894 379.861,459.202 375.49,463.644C355.052,484.407 340.462,509.472 329.111,535.816C328.799,536.477 328.49,537.139 328.182,537.801C323.204,548.544 318.527,559.405 314.282,570.435L314.278,570.445C311.343,575.181 311.047,577.12 305.872,579.77C304.048,580.705 301.945,580.944 299.981,581.531C299.981,581.531 293.849,580.893 293.849,580.893L288.518,577.82C285.256,573.568 283.57,572.567 282.967,566.927C282.404,561.658 284.435,556.669 285.902,551.571C287.623,545.588 289.498,539.645 291.518,533.73C292.903,529.673 294.432,525.691 295.993,521.714L296.044,521.584C306.946,496.281 320.328,471.896 338.493,451.115C348.095,440.131 359.723,430.303 373.181,424.426C373.181,424.426 379.472,423.049 379.472,423.049C381.522,423.398 383.571,423.747 385.62,424.096Z" style="fill:rgb(226,170,119);"/>
    </g>
    <g transform="matrix(4.75742,0,0,4.75742,2910.21,401.271)">
        <circle cx="-492.121" cy="124.531" r="29.818" style="fill:rgb(81,39,0);"/>
    </g>
    <g transform="matrix(4.75742,0,0,4.75742,4279.62,365.431)">
        <circle cx="-492.121" cy="124.531" r="29.818" style="fill:rgb(81,39,0);"/>
    </g>
    <g transform="matrix(5.42218,0,0,5.42218,3639.64,-640.687)">
        <path d="M-436.824,494.398C-427.121,494.398 -407.714,490.534 -407.714,490.534C-407.714,490.534 -338.97,547.472 -363.029,674.132C-363.029,674.132 -366.523,676.843 -371.974,680.233C-382.125,686.546 -399.063,695.213 -412.859,693.108C-412.859,693.108 -400.71,652.306 -416.315,626.351C-416.315,626.351 -430.554,602.177 -437.39,602.177C-444.055,602.177 -457.333,600.736 -457.333,600.736C-464.069,610.541 -465.08,609.505 -465.624,615.843C-466.111,621.524 -450.026,632.844 -450.026,632.844C-458.83,647.781 -473.607,660.102 -481.251,658.823C-492.012,657.023 -510.626,629.724 -510.626,629.724C-534.684,503.064 -465.934,490.534 -465.934,490.534C-465.934,490.534 -446.528,494.398 -436.824,494.398Z" style="fill:rgb(226,170,119);"/>
    </g>
    <g transform="matrix(5.56149,0,0,5.56149,3066.57,-1113.39)">
        <circle cx="-322.768" cy="429.393" r="144.579" style="fill:rgb(226,170,119);"/>
        <clipPath id="_clip1">
            <circle cx="-322.768" cy="429.393" r="144.579"/>
        </clipPath>
        <g clip-path="url(#_clip1)">
            <g transform="matrix(0.321057,0,0,0.321057,-326.135,378.854)">
                <circle cx="-322.768" cy="429.393" r="144.579" style="fill:rgb(236,179,154);"/>
            </g>
            <g transform="matrix(0.321057,0,0,0.321057,-104.829,378.854)">
                <circle cx="-322.768" cy="429.393" r="144.579" style="fill:rgb(236,179,154);"/>
            </g>
        </g>
    </g>
    <g transform="matrix(1.78556,0,0,1.78556,1858.52,1039.56)">
        <circle cx="-322.768" cy="429.393" r="144.579" style="fill:rgb(236,193,154);"/>
    </g>
    <g transform="matrix(1.78556,0,0,1.70838,1868.03,1617.03)">
        <circle cx="-322.768" cy="429.393" r="144.579" style="fill:rgb(236,193,154);"/>
    </g>
    <g transform="matrix(5.15928,0,0,5.15928,-902.794,-427.399)">
        <path d="M385.485,590.841C387.766,591.03 435.29,596.248 458.861,588.938C459.833,588.637 460.378,587.603 460.076,586.63C459.775,585.658 458.741,585.114 457.768,585.415C434.647,592.586 388.026,587.35 385.789,587.165C384.774,587.082 383.883,587.837 383.799,588.851C383.715,589.866 384.471,590.757 385.485,590.841Z" style="fill:rgb(81,39,0);"/>
    </g>
    <g transform="matrix(4.75742,0,0,4.75742,2979.61,348.139)">
        <path d="M-468.181,235.104C-468.181,235.104 -459.916,235.445 -446.099,236.158C-425.82,237.204 -393.579,238.984 -357.935,239.774C-347.138,240.014 -336.03,240.16 -324.849,240.289C-317.501,240.373 -310.124,240.446 -302.78,240.508C-293.47,240.587 -284.225,240.635 -275.162,240.581C-265.667,240.524 -256.398,240.418 -247.474,240.068C-245.273,239.902 -243.621,237.979 -243.787,235.778C-243.953,233.577 -245.875,231.924 -248.077,232.091C-261.948,233.597 -276.716,234.813 -291.833,235.472C-299.11,235.789 -306.459,235.977 -313.813,236.042C-321.165,236.106 -328.52,236.026 -335.808,235.883C-350.321,235.599 -364.569,235.007 -378.02,234.321C-402.977,233.048 -425.192,231.464 -441.234,229.984C-457.543,228.479 -467.454,227.137 -467.454,227.137C-469.652,226.937 -471.6,228.559 -471.801,230.757C-472.001,232.956 -470.379,234.904 -468.181,235.104Z" style="fill:rgb(81,39,0);"/>
    </g>
    <g transform="matrix(4.75742,0,0,4.75742,-679.159,123.112)">
        <path d="M348.547,282.264C348.547,298.309 354.546,311.147 361.402,311.147C368.257,311.147 373.823,298.121 373.823,282.076C373.823,282.076 348.547,281.609 348.547,282.264Z" style="fill:rgb(81,39,0);"/>
    </g>
    <g transform="matrix(4.75742,0,0,4.75742,-177.594,134.017)">
        <path d="M348.547,282.264C348.547,298.309 354.546,311.147 361.402,311.147C368.257,311.147 373.823,298.121 373.823,282.076C373.823,282.076 348.547,281.609 348.547,282.264Z" style="fill:rgb(81,39,0);"/>
    </g>
    <g transform="matrix(3.35719,0,0,3.35719,2471.42,681.426)">
        <path d="M-380.685,278.357C-380.685,278.357 -369.249,307.689 -361.287,311.69C-353.325,315.691 -345.415,313.024 -343.763,310.481C-342.111,307.938 -329.321,286.253 -326.015,278.093C-322.709,269.933 -382.612,269.68 -380.685,278.357" style="fill:rgb(81,39,0);"/>
    </g>
    <g transform="matrix(4.75742,0,0,4.75742,2982.24,231.865)">
        <path d="M-355.901,319.005C-356.513,319.588 -357.183,320.171 -357.898,320.751C-360.211,322.626 -363.069,324.4 -365.788,326.204C-367.889,327.597 -369.867,329.007 -371.647,330.21C-375.14,332.57 -377.644,334.176 -377.644,334.176C-379.662,335.071 -382.028,334.16 -382.923,332.142C-383.818,330.124 -382.907,327.759 -380.889,326.863C-380.889,326.863 -378.038,326.16 -374.224,324.667C-372.232,323.887 -369.99,322.962 -367.811,321.767C-366.59,321.099 -365.412,320.324 -364.295,319.523C-361.5,317.521 -359.137,315.285 -357.982,313.213C-357.504,312.422 -356.658,311.928 -355.734,311.9C-354.81,311.873 -353.935,312.317 -353.412,313.078C-353.412,313.078 -349.215,318.537 -342.647,323.509C-339.048,326.233 -334.709,328.787 -329.905,330.087C-327.797,330.743 -326.617,332.986 -327.273,335.095C-327.928,337.203 -330.172,338.382 -332.28,337.727C-337.914,335.743 -342.939,332.385 -346.98,328.779C-350.996,325.195 -354.058,321.471 -355.901,319.005Z" style="fill:rgb(81,39,0);"/>
    </g>
    <g transform="matrix(5.79317,0,0,5.79317,-1243.81,-31.4327)">
        <path d="M417.305,117.064C417.305,117.064 444.265,77.896 473.572,79.589C473.572,79.589 460.64,90.422 470.322,100.104C470.322,100.104 467.874,88.021 484.499,87.229C484.499,87.229 475.246,114.771 493.115,130.672" style="fill:rgb(226,170,119);"/>
    </g>
    <g transform="matrix(5.15928,0,0,5.15928,-902.794,-288.532)">
        <path d="M339.619,548.765C339.619,548.765 409.685,500.142 482.515,488.647L488.133,502.271C488.133,502.271 415.744,522.852 339.815,568.846L339.619,548.765Z" style="fill:rgb(81,39,0);"/>
    </g>
    <g transform="matrix(4.99928,-1.27491,1.27491,4.99928,-1469.05,379.569)">
        <path d="M469.07,486.21C469.07,483.992 467.27,482.192 465.052,482.192L457.015,482.192C454.797,482.192 452.996,483.992 452.996,486.21L452.996,517.81C452.996,520.028 454.797,521.829 457.015,521.829L465.052,521.829C467.27,521.829 469.07,520.028 469.07,517.81L469.07,486.21Z" style="fill:rgb(81,39,0);"/>
    </g>
    <g transform="matrix(4.99928,-1.27491,1.27491,4.99928,-1575.56,412.99)">
        <path d="M469.07,486.21C469.07,483.992 467.27,482.192 465.052,482.192L457.015,482.192C454.797,482.192 452.996,483.992 452.996,486.21L452.996,517.81C452.996,520.028 454.797,521.829 457.015,521.829L465.052,521.829C467.27,521.829 469.07,520.028 469.07,517.81L469.07,486.21Z" style="fill:rgb(81,39,0);"/>
    </g>
    <g transform="matrix(-0.581815,-2.17136,-2.29484,0.614901,2652.46,3806.78)">
        <g transform="matrix(0.237661,0,0,0.237661,421.755,316.537)">
            <path d="M994.594,891.459L1477.59,891.459L1506.59,918.459C1536.58,926.455 1508.59,947.462 1511.59,956.462C1514.59,965.462 1544.59,980.462 1544.59,980.462C1544.59,980.462 1535.59,995.462 1508.59,1006.46C1481.59,1017.46 1507.59,1072.46 1507.59,1072.46L1555.59,1230.46L1536.59,1236.46L1526.93,1246.46L1401.59,1246.46L1402.6,1228.46C1402.6,1228.46 1375.59,1117.46 1368.6,1100.46C1361.6,1083.46 1340.59,1075.46 1307.6,1083.46C1274.61,1091.47 1207.59,1064.46 1217.59,1039.46C1227.59,1014.46 1208.6,995.462 1208.6,995.462L1056.59,999.459L1041.59,988.459L1006.6,978.462L994.594,952.462L994.594,891.459ZM1249.53,1016.81C1249.53,1016.81 1227.86,1029.68 1238.7,1042.55C1243.4,1048.14 1257.81,1053.73 1273.34,1057.82C1276.45,1058.64 1279.62,1059.4 1282.76,1060.09C1299.97,1063.87 1316.44,1065.46 1320.65,1062.87C1329.46,1057.46 1347.75,1033.07 1336.91,1021.55C1326.07,1010.04 1249.53,1016.81 1249.53,1016.81Z" style="fill:rgb(217,78,127);"/>
        </g>
        <g transform="matrix(1,0,0,1,15.542,-855.023)">
            <path d="M643.293,1392.96L767.497,1392.96" style="fill:none;"/>
        </g>
        <g transform="matrix(1,0,0,1,15.542,-855.023)">
            <path d="M658.302,1408.46L658.302,1383.99" style="fill:none;"/>
        </g>
        <g transform="matrix(1,0,0,1,15.542,-855.023)">
            <path d="M745.662,1462.23L733.363,1411.83L755.745,1411.83L769.758,1458.79L764.842,1462.97L745.662,1462.23" style="fill:rgb(172,68,105);"/>
        </g>
        <g transform="matrix(-0.547745,-1.93422,-2.04421,0.518272,3841.93,451.471)">
            <path d="M333.594,1410.93L349.449,1463.83L347.334,1464.46L331.914,1410.94L333.594,1410.93Z" style="fill:rgb(172,68,105);"/>
        </g>
        <g transform="matrix(-0.547745,-1.93422,-2.04421,0.518272,3844.58,461.582)">
            <path d="M335.008,1415.68L349.562,1464.62L347.334,1464.46L333.328,1415.7L335.008,1415.68Z" style="fill:rgb(172,68,105);"/>
        </g>
        <g transform="matrix(1,0,0,1,15.542,-855.023)">
            <path d="M657.831,1401.39L766.294,1401.39" style="fill:none;"/>
        </g>
    </g>
</svg>
