<?xml version="1.0" encoding="UTF-8" standalone="no"?>
<!DOCTYPE svg PUBLIC "-//W3C//DTD SVG 1.1//EN" "http://www.w3.org/Graphics/SVG/1.1/DTD/svg11.dtd">
<svg width="100%" height="100%" viewBox="0 0 2481 3508" version="1.1" xmlns="http://www.w3.org/2000/svg" xmlns:xlink="http://www.w3.org/1999/xlink" xml:space="preserve" xmlns:serif="http://www.serif.com/" style="fill-rule:evenodd;clip-rule:evenodd;stroke-linejoin:round;stroke-miterlimit:2;">
    <g transform="matrix(-3.42026,-0.773884,-0.922182,4.07567,4952.19,790.091)">
        <g transform="matrix(0.237661,0,0,0.237661,421.755,316.537)">
            <path d="M994.594,891.459L1477.59,891.459L1506.59,918.459C1536.58,926.455 1508.59,947.462 1511.59,956.462C1514.59,965.462 1544.59,980.462 1544.59,980.462C1544.59,980.462 1535.59,995.462 1508.59,1006.46C1481.59,1017.46 1507.59,1072.46 1507.59,1072.46L1555.59,1230.46L1536.59,1236.46L1526.93,1246.46L1401.59,1246.46L1402.6,1228.46C1402.6,1228.46 1375.59,1117.46 1368.6,1100.46C1361.6,1083.46 1340.59,1075.46 1307.6,1083.46C1274.61,1091.47 1207.59,1064.46 1217.59,1039.46C1227.59,1014.46 1208.6,995.462 1208.6,995.462L1056.59,999.459L1041.59,988.459L1006.6,978.462L994.594,952.462L994.594,891.459ZM1249.53,1016.81C1249.53,1016.81 1227.86,1029.68 1238.7,1042.55C1243.4,1048.14 1257.81,1053.73 1273.34,1057.82C1276.45,1058.64 1279.62,1059.4 1282.76,1060.09C1299.97,1063.87 1316.44,1065.46 1320.65,1062.87C1329.46,1057.46 1347.75,1033.07 1336.91,1021.55C1326.07,1010.04 1249.53,1016.81 1249.53,1016.81Z" style="fill:rgb(217,78,127);"/>
        </g>
        <g transform="matrix(1,0,0,1,15.542,-855.023)">
            <path d="M643.293,1392.96L767.497,1392.96" style="fill:none;"/>
        </g>
        <g transform="matrix(1,0,0,1,15.542,-855.023)">
            <path d="M658.302,1408.46L658.302,1383.99" style="fill:none;"/>
        </g>
        <g transform="matrix(1,0,0,1,15.542,-855.023)">
            <path d="M745.662,1462.23L733.363,1411.83L755.745,1411.83L769.758,1458.79L764.842,1462.97L745.662,1462.23" style="fill:rgb(172,68,105);"/>
        </g>
        <g transform="matrix(-0.547745,-1.93422,-2.04421,0.518272,3841.93,451.471)">
            <path d="M333.594,1410.93L349.449,1463.83L347.334,1464.46L331.914,1410.94L333.594,1410.93Z" style="fill:rgb(172,68,105);"/>
        </g>
        <g transform="matrix(-0.547745,-1.93422,-2.04421,0.518272,3844.58,461.582)">
            <path d="M335.008,1415.68L349.562,1464.62L347.334,1464.46L333.328,1415.7L335.008,1415.68Z" style="fill:rgb(172,68,105);"/>
        </g>
        <g transform="matrix(1,0,0,1,15.542,-855.023)">
            <path d="M657.831,1401.39L766.294,1401.39" style="fill:none;"/>
        </g>
    </g>
    <g transform="matrix(-2.57964,4.46807,4.46807,2.57964,-529.489,-726.841)">
        <path d="M385.62,424.096L390.92,427.305L394.67,432.423L395.998,438.394C395.643,440.409 395.648,442.521 394.935,444.438C392.912,449.881 391.031,450.41 386.686,453.894C386.686,453.894 379.861,459.202 375.49,463.644C355.052,484.407 340.462,509.472 329.111,535.816C328.799,536.477 328.49,537.139 328.182,537.801C323.204,548.544 318.527,559.405 314.282,570.435L314.278,570.445C311.343,575.181 311.047,577.12 305.872,579.77C304.048,580.705 301.945,580.944 299.981,581.531C299.981,581.531 293.849,580.893 293.849,580.893L288.518,577.82C285.256,573.568 283.57,572.567 282.967,566.927C282.404,561.658 284.435,556.669 285.902,551.571C287.623,545.588 289.498,539.645 291.518,533.73C292.903,529.673 294.432,525.691 295.993,521.714L296.044,521.584C306.946,496.281 320.328,471.896 338.493,451.115C348.095,440.131 359.723,430.303 373.181,424.426C373.181,424.426 379.472,423.049 379.472,423.049C381.522,423.398 383.571,423.747 385.62,424.096Z" style="fill:rgb(226,170,119);"/>
    </g>
    <g transform="matrix(-3.67182,3.02502,-3.02502,-3.67182,13820.7,879.839)">
        <path d="M2316.28,1462.5L2386.82,1540.21C2386.82,1540.21 2431.77,1541.32 2459.75,1505.54C2466.93,1496.35 2446.23,1487.24 2432.72,1483.34C2407.44,1476.04 2390.54,1444.64 2373.67,1440.98C2346.17,1435 2316.28,1462.5 2316.28,1462.5Z" style="fill:rgb(226,170,119);"/>
    </g>
    <g transform="matrix(4.0256,0,0,3.95046,-8227.31,-2887.95)">
        <path d="M2361.5,1164.4C2373.66,1151.82 2411.33,1276.94 2411.33,1360.58C2411.33,1444.21 2318.96,1464.87 2265.43,1465.71C2217.94,1466.46 2128.5,1391.26 2190.21,1336.11C2235.44,1295.69 2181.04,1351.01 2361.5,1164.4Z" style="fill:rgb(226,170,119);"/>
    </g>
    <g transform="matrix(8.3444,2.23588,-2.23588,8.3444,5947.19,758.631)">
        <circle cx="-492.121" cy="124.531" r="29.818" style="fill:rgb(226,170,119);"/>
    </g>
    <g transform="matrix(8.3444,2.23588,-2.23588,8.3444,5411.86,906.75)">
        <circle cx="-492.121" cy="124.531" r="29.818" style="fill:rgb(226,170,119);"/>
    </g>
    <g transform="matrix(4.59531,1.23131,-1.23131,4.59531,3438.55,876.15)">
        <circle cx="-492.121" cy="124.531" r="29.818" style="fill:rgb(81,39,0);"/>
    </g>
    <g transform="matrix(2.62293,0.702811,-0.702811,2.62293,1953.29,2395.42)">
        <circle cx="-492.121" cy="124.531" r="29.818" style="fill:rgb(81,39,0);"/>
    </g>
    <g transform="matrix(4.59531,1.23131,-1.23131,4.59531,3973.87,728.031)">
        <circle cx="-492.121" cy="124.531" r="29.818" style="fill:rgb(81,39,0);"/>
    </g>
    <g transform="matrix(5.37199,1.43942,-1.43942,5.37199,3924.24,-369.068)">
        <circle cx="-322.768" cy="429.393" r="144.579" style="fill:rgb(226,170,119);"/>
        <clipPath id="_clip1">
            <circle cx="-322.768" cy="429.393" r="144.579"/>
        </clipPath>
        <g clip-path="url(#_clip1)">
            <g transform="matrix(0.321057,0,0,0.321057,-205.576,360.359)">
                <circle cx="-322.768" cy="429.393" r="144.579" style="fill:rgb(236,179,154);"/>
            </g>
            <g transform="matrix(0.321057,0,0,0.321057,-104.829,368.385)">
                <circle cx="-322.768" cy="429.393" r="144.579" style="fill:rgb(236,179,154);"/>
            </g>
            <g transform="matrix(0.826273,-0.221399,0.221399,0.826273,-748.5,296.864)">
                <g transform="matrix(0.362532,0.0971402,-0.0971402,0.362532,682.263,265.126)">
                    <circle cx="-322.768" cy="429.393" r="144.579" style="fill:rgb(236,193,154);"/>
                </g>
                <g transform="matrix(0.681629,0.182642,-0.182642,0.681629,826.187,225.754)">
                    <path d="M-380.685,278.357C-380.685,278.357 -369.249,307.689 -361.287,311.69C-353.325,315.691 -345.415,313.024 -343.763,310.481C-342.111,307.938 -329.321,286.253 -326.015,278.093C-322.709,269.933 -382.612,269.68 -380.685,278.357" style="fill:rgb(81,39,0);"/>
                </g>
            </g>
        </g>
    </g>
    <g transform="matrix(4.59531,1.23131,-1.23131,4.59531,608.359,-204.779)">
        <path d="M348.547,282.264C348.547,298.309 354.546,311.147 361.402,311.147C368.257,311.147 373.823,298.121 373.823,282.076C373.823,282.076 348.547,281.609 348.547,282.264Z" style="fill:rgb(81,39,0);"/>
    </g>
    <g transform="matrix(4.59531,1.23131,-1.23131,4.59531,964.878,-104.247)">
        <path d="M348.547,282.264C348.547,298.309 354.546,311.147 361.402,311.147C368.257,311.147 373.823,298.121 373.823,282.076C373.823,282.076 348.547,281.609 348.547,282.264Z" style="fill:rgb(81,39,0);"/>
    </g>
    <g transform="matrix(4.89622,3.09642,-3.09642,4.89622,83.863,-1168.56)">
        <path d="M417.305,117.064C417.305,117.064 444.265,77.896 473.572,79.589C473.572,79.589 460.64,90.422 470.322,100.104C470.322,100.104 467.874,88.021 484.499,87.229C484.499,87.229 475.246,114.771 493.115,130.672" style="fill:rgb(226,170,119);"/>
    </g>
    <g transform="matrix(4.75742,0,0,4.75742,-10145.5,-4233.32)">
        <path d="M2316.28,1462.5L2386.82,1540.21C2386.82,1540.21 2431.77,1541.32 2459.75,1505.54C2466.93,1496.35 2446.23,1487.24 2432.72,1483.34C2407.44,1476.04 2390.54,1444.64 2373.67,1440.98" style="fill:rgb(226,170,119);"/>
    </g>
    <g transform="matrix(4.75742,0,0,4.75742,-10145.5,-4233.32)">
        <path d="M2284.17,1364.83C2284.17,1364.83 2358.7,1431.08 2410.96,1417.8L2432.22,1428.43C2432.22,1428.43 2361.71,1462.7 2269.95,1378.69L2284.17,1364.83Z" style="fill:rgb(81,39,0);"/>
    </g>
    <g transform="matrix(-1.05558,-5.05014,5.05014,-1.05558,-675.748,4667.02)">
        <path d="M375.49,463.644C355.052,484.407 340.462,509.472 329.111,535.816C328.799,536.477 328.49,537.139 328.182,537.801C323.204,548.544 318.527,559.405 314.282,570.435L314.278,570.445C311.343,575.181 311.047,577.12 305.872,579.77C304.048,580.705 301.945,580.944 299.981,581.531C299.981,581.531 293.849,580.893 293.849,580.893L288.518,577.82C285.256,573.568 283.57,572.567 282.967,566.927C282.404,561.658 284.435,556.669 285.902,551.571C287.623,545.588 289.498,539.645 291.518,533.73C292.903,529.673 294.432,525.691 295.993,521.714L296.044,521.584C306.946,496.281 320.328,471.896 338.493,451.115C348.095,440.131 359.723,430.303 373.181,424.426" style="fill:rgb(226,170,119);"/>
    </g>
    <g transform="matrix(4.59531,1.23131,-1.23131,4.59531,4016.27,920.251)">
        <path d="M-355.84,318.497C-357.148,319.787 -358.758,321.074 -360.524,322.324C-361.849,323.262 -363.265,324.174 -364.669,325.096C-365.597,325.706 -366.513,326.321 -367.412,326.928C-369.26,328.177 -371.015,329.344 -372.563,330.357C-375.67,332.391 -377.846,333.722 -377.846,333.722C-379.613,334.506 -381.685,333.708 -382.469,331.94C-383.253,330.173 -382.455,328.102 -380.687,327.317C-380.687,327.317 -377.841,326.546 -374.048,325.001C-372.065,324.193 -369.83,323.232 -367.655,322.023C-366.433,321.344 -365.25,320.567 -364.126,319.765C-361.287,317.738 -358.874,315.485 -357.693,313.388C-357.275,312.695 -356.533,312.262 -355.724,312.238C-354.915,312.214 -354.149,312.603 -353.69,313.27C-353.69,313.27 -349.502,318.799 -342.916,323.836C-339.288,326.611 -334.909,329.223 -330.052,330.562C-328.206,331.136 -327.173,333.101 -327.747,334.947C-328.321,336.793 -330.286,337.826 -332.132,337.252C-337.716,335.316 -342.695,331.999 -346.711,328.452C-350.88,324.769 -354.024,320.929 -355.84,318.497Z" style="fill:rgb(81,39,0);"/>
    </g>
    <g transform="matrix(4.59531,1.23131,-1.23131,4.59531,3770.71,869.25)">
        <path d="M-468.181,235.104C-468.181,235.104 -459.916,235.445 -446.099,236.158C-425.82,237.204 -393.579,238.984 -357.935,239.774C-347.138,240.014 -336.03,240.16 -324.849,240.289C-317.501,240.373 -310.124,240.446 -302.78,240.508C-293.47,240.587 -284.225,240.635 -275.162,240.581C-265.667,240.524 -256.398,240.418 -247.474,240.068C-245.273,239.902 -243.621,237.979 -243.787,235.778C-243.953,233.577 -245.875,231.924 -248.077,232.091C-261.948,233.597 -276.716,234.813 -291.833,235.472C-299.11,235.789 -306.459,235.977 -313.813,236.042C-321.165,236.106 -328.52,236.026 -335.808,235.883C-350.321,235.599 -364.569,235.007 -378.02,234.321C-402.977,233.048 -425.192,231.464 -441.234,229.984C-457.543,228.479 -467.454,227.137 -467.454,227.137C-469.652,226.937 -471.6,228.559 -471.801,230.757C-472.001,232.956 -470.379,234.904 -468.181,235.104Z" style="fill:rgb(81,39,0);"/>
    </g>
</svg>
