<?xml version="1.0" encoding="UTF-8" standalone="no"?>
<!DOCTYPE svg PUBLIC "-//W3C//DTD SVG 1.1//EN" "http://www.w3.org/Graphics/SVG/1.1/DTD/svg11.dtd">
<svg width="100%" height="100%" viewBox="0 0 77 76" version="1.1" xmlns="http://www.w3.org/2000/svg" xmlns:xlink="http://www.w3.org/1999/xlink" xml:space="preserve" xmlns:serif="http://www.serif.com/" style="fill-rule:evenodd;clip-rule:evenodd;stroke-linecap:round;stroke-linejoin:round;stroke-miterlimit:1.5;">
    <g transform="matrix(1,0,0,1,0,-588)">
        <g id="Mesa-de-trabajo4" serif:id="Mesa de trabajo4" transform="matrix(1,0,0,1,1118.35,-0.344474)">
            <rect x="-1118.35" y="588.344" width="76.573" height="75.794" style="fill:none;"/>
            <g transform="matrix(0.817457,0,0,0.810082,-1542.63,-102.348)">
                <path d="M602.206,868.543C602.206,865.553 599.8,863.125 596.836,863.125L535.34,863.125C532.377,863.125 529.971,865.553 529.971,868.543L529.971,931.31C529.971,934.3 532.377,936.728 535.34,936.728L596.836,936.728C599.8,936.728 602.206,934.3 602.206,931.31L602.206,868.543Z" style="fill:rgb(221,222,222);"/>
            </g>
            <g transform="matrix(0.77894,0,0,0.77894,-704.44,213.66)">
                <path d="M-445.966,498.419C-445.966,495.661 -448.205,493.422 -450.963,493.422L-513.315,493.422C-516.073,493.422 -518.312,495.661 -518.312,498.419L-518.312,561.799C-518.312,564.557 -516.073,566.796 -513.315,566.796L-450.963,566.796C-448.205,566.796 -445.966,564.557 -445.966,561.799L-445.966,498.419Z" style="fill:rgb(117,134,151);"/>
                <clipPath id="_clip1">
                    <path d="M-445.966,498.419C-445.966,495.661 -448.205,493.422 -450.963,493.422L-513.315,493.422C-516.073,493.422 -518.312,495.661 -518.312,498.419L-518.312,561.799C-518.312,564.557 -516.073,566.796 -513.315,566.796L-450.963,566.796C-448.205,566.796 -445.966,564.557 -445.966,561.799L-445.966,498.419Z"/>
                </clipPath>
                <g clip-path="url(#_clip1)">
                    <g transform="matrix(0.75738,0,0,1,-117.251,-123.947)">
                        <rect x="-522.387" y="674.964" width="81.779" height="19.512" style="fill:rgb(101,116,131);"/>
                    </g>
                    <g transform="matrix(0.75738,0,0,0.209435,-117.251,422.531)">
                        <rect x="-522.387" y="674.964" width="81.779" height="19.512" style="fill:rgb(81,96,112);"/>
                    </g>
                    <g transform="matrix(0.034726,0,0,1,-498.755,-123.947)">
                        <rect x="-522.387" y="674.964" width="81.779" height="19.512" style="fill:rgb(101,116,131);"/>
                    </g>
                    <g transform="matrix(0.034726,0,0,0.209435,-498.755,422.531)">
                        <path d="M-440.608,674.964C-440.608,674.964 -507.075,673.956 -522.387,665.185C-527.014,662.535 -522.387,694.475 -522.387,694.475L-440.608,694.475L-440.608,674.964Z" style="fill:rgb(81,96,112);"/>
                    </g>
                    <g transform="matrix(0.0233669,0,0,1,-437.409,-123.947)">
                        <rect x="-522.387" y="674.964" width="81.779" height="19.512" style="fill:rgb(101,116,131);"/>
                    </g>
                    <g transform="matrix(-0.0227012,0,0,0.209435,-459.634,422.531)">
                        <path d="M-440.608,674.964C-440.608,674.964 -507.075,673.956 -522.387,665.185C-527.014,662.535 -522.387,694.475 -522.387,694.475L-440.608,694.475L-440.608,674.964Z" style="fill:rgb(81,96,112);"/>
                    </g>
                </g>
                <path d="M-445.966,498.419C-445.966,495.661 -448.205,493.422 -450.963,493.422L-513.315,493.422C-516.073,493.422 -518.312,495.661 -518.312,498.419L-518.312,561.799C-518.312,564.557 -516.073,566.796 -513.315,566.796L-450.963,566.796C-448.205,566.796 -445.966,564.557 -445.966,561.799L-445.966,498.419Z" style="fill:none;stroke:rgb(101,116,131);stroke-width:1.33px;"/>
            </g>
            <g transform="matrix(0.740753,0,0,0.647801,-722.943,279.742)">
                <path d="M-445.966,498.49C-445.966,495.693 -447.952,493.422 -450.398,493.422L-513.88,493.422C-516.326,493.422 -518.312,495.693 -518.312,498.49L-518.312,561.728C-518.312,564.525 -516.326,566.796 -513.88,566.796L-450.398,566.796C-447.952,566.796 -445.966,564.525 -445.966,561.728L-445.966,498.49Z" style="fill:rgb(150,168,186);"/>
            </g>
            <g transform="matrix(0.725634,0,0,0.647801,-729.825,281.018)">
                <path d="M-445.966,498.49C-445.966,495.693 -447.993,493.422 -450.49,493.422L-513.788,493.422C-516.285,493.422 -518.312,495.693 -518.312,498.49L-518.312,561.728C-518.312,564.525 -516.285,566.796 -513.788,566.796L-450.49,566.796C-447.993,566.796 -445.966,564.525 -445.966,561.728L-445.966,498.49Z" style="fill:rgb(150,168,186);"/>
                <clipPath id="_clip2">
                    <path d="M-445.966,498.49C-445.966,495.693 -447.993,493.422 -450.49,493.422L-513.788,493.422C-516.285,493.422 -518.312,495.693 -518.312,498.49L-518.312,561.728C-518.312,564.525 -516.285,566.796 -513.788,566.796L-450.49,566.796C-447.993,566.796 -445.966,564.525 -445.966,561.728L-445.966,498.49Z"/>
                </clipPath>
                <g clip-path="url(#_clip2)">
                    <g transform="matrix(1.1908,1.33742,-0.75704,0.850251,692.285,749.459)">
                        <rect x="-600.944" y="612.871" width="3.961" height="66.167" style="fill:rgb(221,222,222);"/>
                    </g>
                    <g transform="matrix(2.85802,3.20992,-1.39126,1.56257,2153.91,1477.37)">
                        <rect x="-600.944" y="612.871" width="3.961" height="66.167" style="fill:rgb(221,222,222);"/>
                    </g>
                    <g transform="matrix(1.58544,1.78065,-0.933807,1.04878,1056.44,896.568)">
                        <rect x="-600.944" y="612.871" width="3.961" height="66.167" style="fill:rgb(221,222,222);"/>
                    </g>
                </g>
                <path d="M-445.966,498.49C-445.966,495.693 -447.993,493.422 -450.49,493.422L-513.788,493.422C-516.285,493.422 -518.312,495.693 -518.312,498.49L-518.312,561.728C-518.312,564.525 -516.285,566.796 -513.788,566.796L-450.49,566.796C-447.993,566.796 -445.966,564.525 -445.966,561.728L-445.966,498.49Z" style="fill:none;stroke:rgb(171,171,171);stroke-width:0.6px;"/>
            </g>
            <g transform="matrix(0.77894,0,0,0.77894,-642.874,117.322)">
                <path d="M-594.796,677.31C-594.796,677.887 -593.833,680.456 -594.47,678.937C-595.417,678.164 -596.021,676.988 -596.021,675.671L-596.021,623.08C-596.021,620.754 -594.133,618.865 -591.807,618.865L-531.436,618.865C-529.11,618.865 -527.222,620.754 -527.222,623.08L-527.222,624.719C-527.222,622.392 -529.11,620.504 -531.436,620.504L-590.581,620.504C-592.908,620.504 -594.796,622.392 -594.796,624.719L-594.796,677.31Z" style="fill:rgb(178,187,195);"/>
            </g>
        </g>
    </g>
</svg>
