<?xml version="1.0" encoding="UTF-8" standalone="no"?>
<!DOCTYPE svg PUBLIC "-//W3C//DTD SVG 1.1//EN" "http://www.w3.org/Graphics/SVG/1.1/DTD/svg11.dtd">
<svg width="100%" height="100%" viewBox="0 0 1191 1684" version="1.1" xmlns="http://www.w3.org/2000/svg" xmlns:xlink="http://www.w3.org/1999/xlink" xml:space="preserve" xmlns:serif="http://www.serif.com/" style="fill-rule:evenodd;clip-rule:evenodd;stroke-linecap:round;stroke-linejoin:round;stroke-miterlimit:1.5;">
    <g transform="matrix(0.48,0,0,0.48,0,0)">
        <g transform="matrix(29.9732,0,0,29.9955,-5676.11,-9367.46)">
            <g transform="matrix(0.101767,0.136109,-0.13621,0.101691,277.227,285.964)">
                <path d="M385.62,424.096L390.92,427.305L394.67,432.423L395.998,438.394C395.643,440.409 395.648,442.521 394.935,444.438C392.912,449.881 391.031,450.41 386.686,453.894C386.686,453.894 379.861,459.202 375.49,463.644C355.052,484.407 340.462,509.472 329.111,535.816C328.799,536.477 328.49,537.139 328.182,537.801C323.204,548.544 318.527,559.405 314.282,570.435L314.278,570.445C311.343,575.181 311.047,577.12 305.872,579.77C304.048,580.705 301.945,580.944 299.981,581.531C299.981,581.531 293.849,580.893 293.849,580.893L288.518,577.82C285.256,573.568 283.57,572.567 282.967,566.927C282.404,561.658 284.435,556.669 285.902,551.571C287.623,545.588 289.498,539.645 291.518,533.73C292.903,529.673 294.432,525.691 295.993,521.714L296.044,521.584C306.946,496.281 320.328,471.896 338.493,451.115C348.095,440.131 359.723,430.303 373.181,424.426C373.181,424.426 379.472,423.049 379.472,423.049C381.522,423.398 383.571,423.747 385.62,424.096Z" style="fill:rgb(134,206,138);"/>
            </g>
            <g transform="matrix(0.284697,0,0,0.284486,347.866,327.18)">
                <circle cx="-492.121" cy="124.531" r="29.818" style="fill:rgb(134,206,138);"/>
            </g>
            <g transform="matrix(0.156784,0,0,0.156668,284.789,343.025)">
                <circle cx="-492.121" cy="124.531" r="29.818" style="fill:rgb(81,39,0);"/>
            </g>
            <g transform="matrix(0.284697,0,0,0.284486,391.829,312.789)">
                <circle cx="-492.121" cy="124.531" r="29.818" style="fill:rgb(134,206,138);"/>
            </g>
            <g transform="matrix(0.156784,0,0,0.156668,328.751,328.635)">
                <circle cx="-492.121" cy="124.531" r="29.818" style="fill:rgb(81,39,0);"/>
            </g>
            <g transform="matrix(0.0453822,0,0,0.145922,137.741,550.839)">
                <g transform="matrix(1.82695,0,0,0.813051,-5054.65,-1876.23)">
                    <path d="M3717.5,483.534C3729.78,468.542 3747.91,459.049 3768.13,459.049C3791.59,459.049 3812.25,471.827 3824.2,491.148C3855.39,497.156 3879.06,526.031 3879.06,560.7C3879.06,599.72 3849.07,631.4 3812.14,631.4C3791.98,631.4 3773.89,621.966 3761.62,607.051C3749.79,618.173 3734.21,624.932 3717.15,624.932C3680.21,624.932 3650.22,593.253 3650.22,554.233C3650.22,515.213 3680.21,483.533 3717.15,483.533L3717.5,483.534Z" style="fill:rgb(201,92,96);"/>
                </g>
                <g transform="matrix(1.82695,0,0,0.813051,-5054.63,-1874.43)">
                    <path d="M3722.25,501.945C3733.7,487.967 3750.61,479.116 3769.46,479.116C3791.33,479.116 3810.59,491.03 3821.74,509.044C3850.82,514.646 3872.89,541.568 3872.89,573.893C3872.89,610.274 3844.93,639.811 3810.49,639.811C3791.7,639.811 3774.83,631.016 3763.39,617.109C3752.36,627.479 3737.83,633.781 3721.93,633.781C3687.49,633.781 3659.53,604.244 3659.53,567.863C3659.53,531.481 3687.49,501.944 3721.93,501.944L3722.25,501.945Z" style="fill:rgb(201,92,96);"/>
                </g>
                <g transform="matrix(1.40251,-0.423737,0.584743,0.383314,-3851.33,-77.0437)">
                    <ellipse cx="3733.08" cy="560.947" rx="27.656" ry="25.396" style="fill:rgb(201,92,96);"/>
                </g>
                <g transform="matrix(1.25014,0.0285096,-0.0393423,0.341671,-2834.75,-1764.1)">
                    <ellipse cx="3733.08" cy="560.947" rx="27.656" ry="25.396" style="fill:rgb(201,92,96);"/>
                </g>
                <g transform="matrix(1.03021,0.31645,-0.43669,0.281563,-1652.16,-2781.05)">
                    <ellipse cx="3733.08" cy="560.947" rx="27.656" ry="25.396" style="fill:rgb(201,92,96);"/>
                </g>
            </g>
            <g transform="matrix(0.0453822,0,0,0.145922,149.987,546.335)">
                <g transform="matrix(1.82695,0,0,0.813051,-5054.65,-1876.23)">
                    <path d="M3717.5,483.534C3729.78,468.542 3747.91,459.049 3768.13,459.049C3791.59,459.049 3812.25,471.827 3824.2,491.148C3855.39,497.156 3879.06,526.031 3879.06,560.7C3879.06,599.72 3849.07,631.4 3812.14,631.4C3791.98,631.4 3773.89,621.966 3761.62,607.051C3749.79,618.173 3734.21,624.932 3717.15,624.932C3680.21,624.932 3650.22,593.253 3650.22,554.233C3650.22,515.213 3680.21,483.533 3717.15,483.533L3717.5,483.534Z" style="fill:rgb(201,92,96);"/>
                </g>
                <g transform="matrix(1.82695,0,0,0.813051,-5054.63,-1874.43)">
                    <path d="M3722.25,501.945C3733.7,487.967 3750.61,479.116 3769.46,479.116C3791.33,479.116 3810.59,491.03 3821.74,509.044C3850.82,514.646 3872.89,541.568 3872.89,573.893C3872.89,610.274 3844.93,639.811 3810.49,639.811C3791.7,639.811 3774.83,631.016 3763.39,617.109C3752.36,627.479 3737.83,633.781 3721.93,633.781C3687.49,633.781 3659.53,604.244 3659.53,567.863C3659.53,531.481 3687.49,501.944 3721.93,501.944L3722.25,501.945Z" style="fill:rgb(201,92,96);"/>
                </g>
                <g transform="matrix(1.40251,-0.423737,0.584743,0.383314,-3851.33,-77.0437)">
                    <ellipse cx="3733.08" cy="560.947" rx="27.656" ry="25.396" style="fill:rgb(201,92,96);"/>
                </g>
                <g transform="matrix(1.25014,0.0285096,-0.0393423,0.341671,-2834.75,-1764.1)">
                    <ellipse cx="3733.08" cy="560.947" rx="27.656" ry="25.396" style="fill:rgb(201,92,96);"/>
                </g>
                <g transform="matrix(1.03021,0.31645,-0.43669,0.281563,-1652.16,-2781.05)">
                    <ellipse cx="3733.08" cy="560.947" rx="27.656" ry="25.396" style="fill:rgb(201,92,96);"/>
                </g>
            </g>
            <g transform="matrix(0.12463,0,0,0.137214,-249.977,243.486)">
                <path d="M3935.36,642.298C3995.05,675.128 4035.54,738.628 4035.54,811.511C4035.54,918.019 3949.07,1004.49 3842.57,1004.49C3736.06,1004.49 3649.59,918.019 3649.59,811.511C3649.59,757.31 3671.98,708.297 3708.02,673.223C3718.7,685.301 3734.32,692.922 3751.7,692.922C3771.82,692.922 3789.58,682.706 3800.06,667.183C3807.58,670.72 3815.97,672.695 3824.82,672.695C3834.49,672.695 3843.6,670.339 3851.63,666.172C3860.66,671.912 3871.37,675.238 3882.85,675.238C3905.94,675.238 3925.91,661.788 3935.36,642.298Z" style="fill:rgb(134,206,138);"/>
                <clipPath id="_clip1">
                    <path d="M3935.36,642.298C3995.05,675.128 4035.54,738.628 4035.54,811.511C4035.54,918.019 3949.07,1004.49 3842.57,1004.49C3736.06,1004.49 3649.59,918.019 3649.59,811.511C3649.59,757.31 3671.98,708.297 3708.02,673.223C3718.7,685.301 3734.32,692.922 3751.7,692.922C3771.82,692.922 3789.58,682.706 3800.06,667.183C3807.58,670.72 3815.97,672.695 3824.82,672.695C3834.49,672.695 3843.6,670.339 3851.63,666.172C3860.66,671.912 3871.37,675.238 3882.85,675.238C3905.94,675.238 3925.91,661.788 3935.36,642.298Z"/>
                </clipPath>
                <g clip-path="url(#_clip1)">
                    <g transform="matrix(0.499592,0,0,1.1226,2880.37,2281.71)">
                        <g transform="matrix(0.857767,0,0,0.381733,1969.87,-1350.01)">
                            <circle cx="-322.768" cy="429.393" r="144.579" style="fill:rgb(96,137,98);"/>
                        </g>
                        <g transform="matrix(0.553277,0,0,0.381733,1922.16,-1360.14)">
                            <circle cx="-322.768" cy="429.393" r="144.579" style="fill:rgb(96,137,98);"/>
                        </g>
                    </g>
                    <g transform="matrix(0.428534,0,0,0.428534,4176.51,645.671)">
                        <circle cx="-322.768" cy="429.393" r="144.579" style="fill:rgb(96,137,98);"/>
                    </g>
                </g>
            </g>
            <g transform="matrix(0.137316,0,0,0.145395,293.374,36.0533)">
                <path d="M-590.283,2514.01C-571.421,2412.64 -526.526,2365.43 -526.526,2365.43C-526.526,2365.43 -501.271,2370.45 -488.644,2370.45C-476.017,2370.45 -450.762,2365.43 -450.762,2365.43C-450.762,2365.43 -413.057,2406.39 -392.428,2518.95C-418.284,2537.98 -451.709,2549.47 -488.19,2549.47C-527.719,2549.47 -563.661,2535.98 -590.283,2514.01Z" style="fill:rgb(134,206,138);"/>
                <clipPath id="_clip2">
                    <path d="M-590.283,2514.01C-571.421,2412.64 -526.526,2365.43 -526.526,2365.43C-526.526,2365.43 -501.271,2370.45 -488.644,2370.45C-476.017,2370.45 -450.762,2365.43 -450.762,2365.43C-450.762,2365.43 -413.057,2406.39 -392.428,2518.95C-418.284,2537.98 -451.709,2549.47 -488.19,2549.47C-527.719,2549.47 -563.661,2535.98 -590.283,2514.01Z"/>
                </clipPath>
                <g clip-path="url(#_clip2)">
                    <g transform="matrix(0.428534,0,0,0.482676,-321.589,2250.36)">
                        <circle cx="-322.768" cy="429.393" r="144.579" style="fill:rgb(108,159,111);"/>
                    </g>
                </g>
            </g>
            <g transform="matrix(0.11386,-0.126182,-0.126276,-0.113775,262.615,487.781)">
                <path d="M385.62,424.096L390.92,427.305L394.67,432.423L395.998,438.394C395.643,440.409 395.648,442.521 394.935,444.438C392.912,449.881 391.031,450.41 386.686,453.894C386.686,453.894 379.861,459.202 375.49,463.644C355.052,484.407 340.462,509.472 329.111,535.816C328.799,536.477 328.49,537.139 328.182,537.801C323.204,548.544 318.527,559.405 314.282,570.435L314.278,570.445C311.343,575.181 311.047,577.12 305.872,579.77C304.048,580.705 301.945,580.944 299.981,581.531C299.981,581.531 293.849,580.893 293.849,580.893L288.518,577.82C285.256,573.568 283.57,572.567 282.967,566.927C282.404,561.658 284.435,556.669 285.902,551.571C287.623,545.588 289.498,539.645 291.518,533.73C292.903,529.673 294.432,525.691 295.993,521.714L296.044,521.584C306.946,496.281 320.328,471.896 338.493,451.115C348.095,440.131 359.723,430.303 373.181,424.426C373.181,424.426 379.472,423.049 379.472,423.049C381.522,423.398 383.571,423.747 385.62,424.096Z" style="fill:rgb(134,206,138);"/>
            </g>
            <g transform="matrix(0.178692,0,0,0.17856,304.723,294.078)">
                <path d="M-515.786,602.102C-500.283,615.196 -480.53,624.481 -458.513,628.224C-470.509,647.243 -476.464,681.214 -476.464,681.214C-484.665,682.465 -509.409,681.545 -509.409,681.545L-521.104,659.43C-520.918,651.184 -508.069,642.292 -507.482,634.743C-506.542,622.664 -517.572,612.465 -515.786,602.102Z" style="fill:rgb(134,206,138);"/>
            </g>
            <g transform="matrix(0.177535,0.0202866,-0.0203017,0.177404,315.959,302.056)">
                <path d="M-362.007,605.954C-360.202,616.312 -358.604,627.533 -357.262,639.676C-356.596,645.708 -343.686,666.482 -343.212,672.976C-343.212,672.976 -371.947,684.448 -393.15,681.214C-393.15,681.214 -402.849,647.362 -415.05,628.319C-395.023,625.008 -376.844,617.13 -362.007,605.954Z" style="fill:rgb(134,206,138);"/>
            </g>
            <g transform="matrix(0.0629143,0,0,0.0622707,258.775,339.45)">
                <circle cx="-322.768" cy="429.393" r="144.579" style="fill:rgb(108,159,111);"/>
            </g>
            <g transform="matrix(0.110639,0,0,0.110557,278.249,328.645)">
                <path d="M-380.685,278.357C-380.685,278.357 -369.249,307.689 -361.287,311.69C-353.325,315.691 -345.415,313.024 -343.763,310.481C-342.111,307.938 -329.321,286.253 -326.015,278.093C-322.709,269.933 -382.612,269.68 -380.685,278.357" style="fill:rgb(81,39,0);"/>
            </g>
            <g transform="matrix(0.0821444,0,0,0.0820835,-86.7265,291.53)">
                <circle cx="3836.12" cy="781.344" r="57.998" style="fill:rgb(226,215,119);stroke:rgb(81,39,0);stroke-width:10px;"/>
            </g>
            <g transform="matrix(0.120273,0,0,0.120183,-217.707,255.901)">
                <circle cx="3836.12" cy="781.344" r="57.998" style="fill:rgb(226,215,119);stroke:rgb(81,39,0);stroke-width:10px;"/>
            </g>
            <g transform="matrix(0.0271524,-0.0131971,0.0104671,0.0215036,134.946,378.874)">
                <circle cx="3147.18" cy="787.379" r="56.76" style="fill:rgb(255,252,229);"/>
            </g>
            <g transform="matrix(0.0588944,-0.028625,0.0227036,0.046642,42.3998,401.692)">
                <circle cx="3147.18" cy="787.379" r="56.76" style="fill:rgb(255,252,229);"/>
            </g>
            <g transform="matrix(0.133717,0.031209,-0.0312322,0.133618,-159.377,192.698)">
                <path d="M2977.69,454.762C2977.69,450.273 2974.04,446.629 2969.55,446.629L2884.38,446.629C2879.89,446.629 2876.24,450.273 2876.24,454.762L2876.24,471.03C2876.24,475.519 2879.89,479.164 2884.38,479.164L2969.55,479.164C2974.04,479.164 2977.69,475.519 2977.69,471.03L2977.69,454.762Z" style="fill:rgb(255,252,229);"/>
            </g>
            <g transform="matrix(0.0970969,-0.0970249,0.0970969,0.0970249,-112.032,585.532)">
                <path d="M2977.69,454.762C2977.69,450.273 2974.04,446.629 2969.55,446.629L2884.38,446.629C2879.89,446.629 2876.24,450.273 2876.24,454.762L2876.24,471.03C2876.24,475.519 2879.89,479.164 2884.38,479.164L2969.55,479.164C2974.04,479.164 2977.69,475.519 2977.69,471.03L2977.69,454.762Z" style="fill:rgb(255,252,229);"/>
            </g>
            <g transform="matrix(0.156333,0.0679005,-0.141736,0.325846,-151.892,-147.883)">
                <ellipse cx="3301.07" cy="893.838" rx="34.221" ry="14.196" style="fill:rgb(81,39,0);"/>
            </g>
        </g>
    </g>
</svg>
